<?xml version="1.0" standalone="no"?>
<!DOCTYPE svg PUBLIC "-//W3C//DTD SVG 20010904//EN"
 "http://www.w3.org/TR/2001/REC-SVG-20010904/DTD/svg10.dtd">
<svg version="1.0" xmlns="http://www.w3.org/2000/svg"
 width="100.000000pt" height="100.000000pt" viewBox="0 0 100.000000 100.000000"
 preserveAspectRatio="xMidYMid meet">

<g transform="translate(0.000000,100.000000) scale(0.100000,-0.100000)"
fill="#000000" stroke="none">
<path d="M409 837 c-103 -29 -181 -96 -228 -197 -37 -80 -37 -201 1 -282 34
-73 103 -142 176 -176 48 -22 71 -27 142 -27 104 0 174 29 245 100 71 71 100
141 100 245 0 71 -5 94 -27 142 -33 72 -103 142 -173 174 -66 30 -170 40 -236
21z m236 -46 c115 -57 180 -161 180 -291 0 -65 -5 -85 -33 -142 -58 -118 -161
-183 -292 -183 -129 0 -234 65 -290 179 -39 80 -48 154 -26 228 59 205 272
302 461 209z"/>
<path d="M393 774 c-57 -21 -123 -81 -153 -140 -36 -70 -36 -197 -1 -266 48
-95 135 -150 243 -156 73 -5 159 18 181 46 7 9 21 22 32 29 11 6 19 16 17 22
-1 6 4 11 11 11 16 0 54 66 45 76 -4 3 -1 13 7 21 20 20 19 126 -1 186 -20 60
-79 126 -140 157 -61 31 -177 38 -241 14z m28 -130 c19 -17 154 -19 164 -3 4
5 19 15 33 20 29 11 42 -1 42 -42 0 -14 7 -41 16 -58 36 -71 -13 -157 -95
-168 l-42 -6 21 -22 c15 -16 20 -35 20 -77 0 -62 -7 -68 -80 -68 -64 0 -80 9
-80 45 0 30 -3 33 -35 39 -25 5 -42 17 -60 43 -32 48 -24 53 20 14 44 -38 63
-38 92 -2 l22 28 -41 6 c-28 4 -51 15 -72 36 -26 27 -31 39 -31 80 0 33 6 55
18 68 9 11 17 33 17 50 0 16 3 33 7 36 9 9 44 -2 64 -19z"/>
<path d="M350 565 c-7 -9 -11 -17 -9 -20 3 -2 10 5 17 15 14 24 10 26 -8 5z"/>
<path d="M332 510 c0 -14 2 -19 5 -12 2 6 2 18 0 25 -3 6 -5 1 -5 -13z"/>
<path d="M343 467 c4 -10 7 -20 7 -23 0 -7 62 -36 67 -31 2 3 -5 8 -16 12 -11
3 -30 18 -42 33 -14 17 -20 20 -16 9z"/>
</g>
</svg>
